<svg width="328" height="189" viewBox="0 0 328 189" fill="none" xmlns="http://www.w3.org/2000/svg">
<path d="M256.457 178.474H76.7312L76.8123 163.938C77.0174 127.157 115.503 96.8502 163.713 96.2247C164.233 96.2179 164.755 96.2146 165.278 96.2146H165.278C176.126 96.2083 186.888 97.6832 197.055 100.569C231.167 110.26 254.064 134.882 255.587 162.625L256.457 178.474Z" fill="url(#paint0_linear_1_132)"/>
<path d="M328 178.474H0V179.039H328V178.474Z" fill="#2F2E41"/>
<path d="M163.55 113.46L171.469 117.854L179.389 169.477H198.107L191.628 110.714L165.71 103.025L163.55 113.46Z" fill="#2F2E41"/>
<path d="M130.433 96.9845C130.433 96.9845 128.274 115.657 136.913 116.206C145.552 116.755 178.669 110.714 178.669 110.714L194.508 153.551L218.265 144.214C218.265 144.214 203.867 95.8862 195.227 93.1403C186.588 90.3943 157.791 84.9025 157.791 84.9025L136.913 87.6484L130.433 96.9845Z" fill="#2F2E41"/>
<path d="M182.269 168.379C182.269 168.379 177.949 181.01 180.829 182.108C182.561 182.768 184.243 183.502 185.868 184.305V182.108C185.868 182.108 189.468 184.854 189.468 187.051C189.468 189.248 208.906 189.797 208.906 187.051C208.906 184.305 208.186 181.01 204.587 179.362C200.987 177.715 196.667 168.379 196.667 168.379H182.269Z" fill="#2F2E41"/>
<path d="M203.147 145.862L204.586 156.297L209.626 162.887L221.865 152.452L212.506 140.919L203.147 145.862Z" fill="#2F2E41"/>
<path d="M214.666 156.296C214.666 156.296 217.317 149.382 219.951 150.093C222.585 150.805 232.664 157.944 232.664 157.944L239.863 161.239C239.863 161.239 254.262 162.338 249.942 165.633C245.623 168.928 229.784 173.321 222.585 171.125C215.386 168.928 213.946 168.379 213.946 168.379L211.786 169.477L203.147 167.829L204.587 156.296C204.587 156.296 206.746 161.239 214.666 156.296Z" fill="#2F2E41"/>
<path d="M154.911 28.3365C164.056 28.3365 171.47 22.6813 171.47 15.7052C171.47 8.72921 164.056 3.07401 154.911 3.07401C145.766 3.07401 138.353 8.72921 138.353 15.7052C138.353 22.6813 145.766 28.3365 154.911 28.3365Z" fill="#9F616A"/>
<path d="M144.472 23.1192C144.472 23.1192 145.912 34.6521 141.592 34.6521C137.273 34.6521 142.312 48.9309 153.831 48.9309C165.35 48.9309 169.67 31.9062 169.67 31.9062C169.67 31.9062 161.75 29.7095 163.19 22.5701C164.63 15.4307 144.472 23.1192 144.472 23.1192Z" fill="#9F616A"/>
<path d="M143.325 33.7724L137.273 35.7505L120.847 41.0515C120.185 41.2652 119.631 41.6365 119.268 42.11C118.905 42.5834 118.752 43.1337 118.833 43.6788L125.034 85.7263C125.034 85.7263 118.554 96.1608 128.633 96.71L130.073 100.554L141.592 90.1198L184.788 89.0214L185.508 35.7505L165.744 29.7927C165.744 29.7927 163.056 41.1304 143.325 33.7724Z" fill="#3F3D56"/>
<path d="M123.234 42.6153L120.573 42.0354C120.275 41.9704 119.962 41.9544 119.655 41.9885C119.348 42.0226 119.054 42.1059 118.792 42.2331C118.531 42.3602 118.307 42.5283 118.137 42.7261C117.967 42.924 117.854 43.1471 117.805 43.3808L110.745 77.163C110.194 79.6648 110.721 82.2352 112.247 84.4891C114.429 87.6398 118.959 90.4973 128.273 87.0992L134.753 51.4022L123.234 42.6153Z" fill="#3F3D56"/>
<path d="M177.229 34.9267L185.868 36.0251L209.626 61.2876L211.786 65.681L225.465 62.3859C225.465 62.3859 224.745 67.3286 231.944 66.7794C231.944 66.7794 223.305 84.9025 205.306 79.4106C187.308 73.9188 181.549 57.4433 181.549 57.4433L177.229 34.9267Z" fill="#3F3D56"/>
<path d="M187.308 45.9105L154.911 36.025L153.471 39.3202L168.59 49.2054L187.308 45.9105Z" fill="#CCCCCC"/>
<path d="M144.942 16.5105C145.553 16.3859 145.643 15.7665 145.663 15.2839C145.773 12.6995 147.813 10.0477 151.056 9.29532C152.301 9.03501 153.604 8.98031 154.878 9.1349C156.697 9.31972 158.453 9.76671 160.054 10.452C160.898 10.8143 161.727 11.2506 162.685 11.3612C163.317 11.4343 166.057 12.0419 166.687 12.1274C168.072 12.3154 169.36 13.2609 170.689 12.909C171.961 12.5725 172.242 11.3164 172.273 10.2899C172.343 7.95122 170.016 4.71441 167.966 2.97462C166.41 1.65436 164.068 1.04491 161.778 0.728003C159.103 0.400155 156.393 0.274367 153.685 0.352467C150.021 0.40232 146.255 0.618074 142.951 1.82756C139.647 3.03705 136.871 5.44423 136.713 8.23735C136.68 8.81918 136.758 9.40344 136.694 9.98376C136.538 11.3994 135.552 12.6781 135.09 14.0544C134.76 15.0642 134.71 16.1156 134.945 17.1409C135.18 18.1661 135.694 19.1424 136.454 20.0069C137.68 21.3835 142.584 22.6333 142.513 24.2968C143.399 23.5963 141.309 22.8912 142.195 22.1907C142.593 21.9594 142.874 21.6312 142.992 21.2608C143.11 20.8905 143.058 20.5004 142.845 20.1557L141.904 17.3553C141.731 16.8425 141.562 16.2875 141.822 15.7968C142.831 13.8949 143.922 16.7182 144.942 16.5105Z" fill="#2F2E41"/>
<path d="M153.471 39.3201L139.793 79.9597L193.068 94.2387L224.025 74.4679L243.463 29.9841L211.786 47.558L153.471 39.3201Z" fill="#F2F2F2"/>
<path d="M156.083 43.7228L155.899 44.2537L207.734 54.6882L207.918 54.1573L156.083 43.7228Z" fill="#E4E4E4"/>
<path d="M154.643 46.4687L154.459 46.9996L206.295 57.4341L206.478 56.9032L154.643 46.4687Z" fill="#E4E4E4"/>
<path d="M153.923 49.2147L153.739 49.7456L205.575 60.1801L205.758 59.6492L153.923 49.2147Z" fill="#E4E4E4"/>
<path d="M153.203 51.9606L153.019 52.4915L204.855 62.926L205.038 62.3951L153.203 51.9606Z" fill="#E4E4E4"/>
<path d="M152.483 54.7065L152.299 55.2374L204.135 65.6719L204.318 65.141L152.483 54.7065Z" fill="#E4E4E4"/>
<path d="M151.763 57.4524L151.58 57.9833L203.415 68.4178L203.598 67.8869L151.763 57.4524Z" fill="#E4E4E4"/>
<path d="M151.043 60.1983L150.86 60.7293L202.695 71.1638L202.879 70.6329L151.043 60.1983Z" fill="#E4E4E4"/>
<path d="M150.323 62.9442L150.14 63.4752L201.975 73.9097L202.159 73.3788L150.323 62.9442Z" fill="#E4E4E4"/>
<path d="M149.603 65.6902L149.42 66.2211L201.255 76.6556L201.439 76.1247L149.603 65.6902Z" fill="#E4E4E4"/>
<path d="M131.52 69.2143C131.52 69.2143 147.712 61.8368 154.911 66.7794C162.11 71.7221 134.033 78.8615 134.033 78.8615L131.52 69.2143Z" fill="#9F616A"/>
<path d="M113.875 72.8204L134.753 66.7794C134.753 66.7794 131.153 77.2139 138.353 77.7631L128.273 87.0992C128.273 87.0992 108.115 87.0992 113.875 72.8204Z" fill="#3F3D56"/>
<path d="M168.815 72.5951L196.519 79.7178L189.963 90.6196L162.259 83.4972L168.815 72.5951Z" fill="#E4E4E4"/>
<path d="M217.905 49.4802L238.784 37.3979L233.024 52.2261L211.426 64.3081L217.905 49.4802Z" fill="#CCCCCC"/>
<path d="M228.487 57.4993L207.608 69.5809L208.044 70.0185L228.922 57.9369L228.487 57.4993Z" fill="#E4E4E4"/>
<path d="M227.047 63.5403L206.169 75.6219L206.604 76.0596L227.482 63.9779L227.047 63.5403Z" fill="#E4E4E4"/>
<path d="M229.784 67.3286C229.784 67.3286 247.783 59.0908 236.264 55.7957C224.745 52.5006 224.745 65.1319 224.745 65.1319C224.745 65.1319 224.025 67.8778 229.784 67.3286Z" fill="#9F616A"/>
<path opacity="0.1" d="M124.314 48.9309L123.594 70.3492L134.753 67.9199L125.754 68.1522L124.314 48.9309Z" fill="black"/>
<path d="M45.7549 168.788C48.0055 175.134 55.714 179.064 55.714 179.064C55.714 179.064 59.7737 172.706 57.5232 166.359C55.2727 160.013 47.5641 156.083 47.5641 156.083C47.5641 156.083 43.5044 162.442 45.7549 168.788Z" fill="#8985A8"/>
<path d="M49.0619 167.424C55.2374 172.01 55.9917 179.059 55.9917 179.059C55.9917 179.059 46.7336 178.674 40.5581 174.088C34.3826 169.502 33.6284 162.453 33.6284 162.453C33.6284 162.453 42.8865 162.838 49.0619 167.424Z" fill="#3F3D56"/>
<path d="M259.051 107.522H247.934V116.002H259.051V107.522Z" fill="#F2F2F2"/>
<path d="M214.582 11.4109H203.465V19.8913H214.582V11.4109Z" fill="#F2F2F2"/>
<path d="M74.8784 97.3452C77.9483 97.3452 80.4369 95.4468 80.4369 93.1051C80.4369 90.7633 77.9483 88.8649 74.8784 88.8649C71.8085 88.8649 69.3199 90.7633 69.3199 93.1051C69.3199 95.4468 71.8085 97.3452 74.8784 97.3452Z" fill="#F2F2F2"/>
<g filter="url(#filter0_dd_1_132)">
<mask id="path-38-outside-1_1_132" maskUnits="userSpaceOnUse" x="156" y="53" width="49" height="13" fill="black">
<rect fill="white" x="156" y="53" width="49" height="13"/>
<path d="M159.152 62.973H163.585L163.39 64H157.566L157.735 63.064L163.377 55.966H159.022L159.217 54.939H164.963L164.794 55.875L159.152 62.973ZM167.667 54.939L166.055 64H164.872L166.484 54.939H167.667ZM175.065 64H173.882L170.411 56.785L169.124 64H167.941L169.553 54.926H170.736L174.22 62.128L175.494 54.926H176.677L175.065 64ZM177.316 59.463C177.472 58.579 177.81 57.786 178.33 57.084C178.858 56.3733 179.504 55.823 180.267 55.433C181.029 55.0343 181.831 54.835 182.672 54.835C183.642 54.835 184.453 55.0733 185.103 55.55C185.761 56.0267 186.186 56.6983 186.377 57.565H184.96C184.804 57.0363 184.509 56.629 184.076 56.343C183.651 56.0483 183.122 55.901 182.49 55.901C181.857 55.901 181.259 56.0483 180.696 56.343C180.141 56.629 179.673 57.045 179.292 57.591C178.91 58.1283 178.655 58.7523 178.525 59.463C178.481 59.6883 178.46 59.9483 178.46 60.243C178.46 61.0923 178.711 61.7683 179.214 62.271C179.716 62.765 180.388 63.012 181.229 63.012C182.121 63.012 182.901 62.7477 183.569 62.219C184.236 61.6817 184.695 60.958 184.947 60.048H181.333L181.502 59.112H186.377L186.208 60.022C186.008 60.7673 185.653 61.452 185.142 62.076C184.639 62.6913 184.028 63.181 183.309 63.545C182.598 63.9003 181.844 64.078 181.047 64.078C180.301 64.078 179.638 63.9263 179.058 63.623C178.486 63.311 178.039 62.8733 177.719 62.31C177.398 61.7467 177.238 61.101 177.238 60.373C177.238 60.0783 177.264 59.775 177.316 59.463ZM195.52 54.939L193.921 64H192.738L193.466 59.866H188.864L188.123 64H186.94L188.552 54.939H189.735L189.02 58.943H193.635L194.337 54.939H195.52ZM200.322 54.939C201.223 54.939 201.904 55.134 202.363 55.524C202.822 55.914 203.052 56.434 203.052 57.084C203.052 57.188 203.035 57.3613 203 57.604C202.887 58.228 202.61 58.7783 202.168 59.255C201.726 59.7317 201.132 60.048 200.387 60.204L201.986 64H200.569L199.061 60.295H197.644L196.981 64H195.798L197.41 54.939H200.322ZM201.778 57.604C201.804 57.448 201.817 57.305 201.817 57.175C201.817 56.759 201.678 56.4383 201.401 56.213C201.132 55.9877 200.716 55.875 200.153 55.875H198.424L197.813 59.346H199.555C200.196 59.346 200.703 59.19 201.076 58.878C201.449 58.5573 201.683 58.1327 201.778 57.604Z"/>
</mask>
<path d="M159.152 62.973H163.585L163.39 64H157.566L157.735 63.064L163.377 55.966H159.022L159.217 54.939H164.963L164.794 55.875L159.152 62.973ZM167.667 54.939L166.055 64H164.872L166.484 54.939H167.667ZM175.065 64H173.882L170.411 56.785L169.124 64H167.941L169.553 54.926H170.736L174.22 62.128L175.494 54.926H176.677L175.065 64ZM177.316 59.463C177.472 58.579 177.81 57.786 178.33 57.084C178.858 56.3733 179.504 55.823 180.267 55.433C181.029 55.0343 181.831 54.835 182.672 54.835C183.642 54.835 184.453 55.0733 185.103 55.55C185.761 56.0267 186.186 56.6983 186.377 57.565H184.96C184.804 57.0363 184.509 56.629 184.076 56.343C183.651 56.0483 183.122 55.901 182.49 55.901C181.857 55.901 181.259 56.0483 180.696 56.343C180.141 56.629 179.673 57.045 179.292 57.591C178.91 58.1283 178.655 58.7523 178.525 59.463C178.481 59.6883 178.46 59.9483 178.46 60.243C178.46 61.0923 178.711 61.7683 179.214 62.271C179.716 62.765 180.388 63.012 181.229 63.012C182.121 63.012 182.901 62.7477 183.569 62.219C184.236 61.6817 184.695 60.958 184.947 60.048H181.333L181.502 59.112H186.377L186.208 60.022C186.008 60.7673 185.653 61.452 185.142 62.076C184.639 62.6913 184.028 63.181 183.309 63.545C182.598 63.9003 181.844 64.078 181.047 64.078C180.301 64.078 179.638 63.9263 179.058 63.623C178.486 63.311 178.039 62.8733 177.719 62.31C177.398 61.7467 177.238 61.101 177.238 60.373C177.238 60.0783 177.264 59.775 177.316 59.463ZM195.52 54.939L193.921 64H192.738L193.466 59.866H188.864L188.123 64H186.94L188.552 54.939H189.735L189.02 58.943H193.635L194.337 54.939H195.52ZM200.322 54.939C201.223 54.939 201.904 55.134 202.363 55.524C202.822 55.914 203.052 56.434 203.052 57.084C203.052 57.188 203.035 57.3613 203 57.604C202.887 58.228 202.61 58.7783 202.168 59.255C201.726 59.7317 201.132 60.048 200.387 60.204L201.986 64H200.569L199.061 60.295H197.644L196.981 64H195.798L197.41 54.939H200.322ZM201.778 57.604C201.804 57.448 201.817 57.305 201.817 57.175C201.817 56.759 201.678 56.4383 201.401 56.213C201.132 55.9877 200.716 55.875 200.153 55.875H198.424L197.813 59.346H199.555C200.196 59.346 200.703 59.19 201.076 58.878C201.449 58.5573 201.683 58.1327 201.778 57.604Z" fill="black"/>
<path d="M159.152 62.973L158.369 62.3508L157.079 63.973H159.152V62.973ZM163.585 62.973L164.567 63.1596L164.792 61.973H163.585V62.973ZM163.39 64V65H164.218L164.372 64.1866L163.39 64ZM157.566 64L156.582 63.8223L156.369 65H157.566V64ZM157.735 63.064L156.952 62.4418L156.795 62.6387L156.751 62.8863L157.735 63.064ZM163.377 55.966L164.159 56.5883L165.449 54.966H163.377V55.966ZM159.022 55.966L158.039 55.7795L157.814 56.966H159.022V55.966ZM159.217 54.939V53.939H158.389L158.234 54.7525L159.217 54.939ZM164.963 54.939L165.947 55.1167L166.159 53.939H164.963V54.939ZM164.794 55.875L165.576 56.4973L165.733 56.3003L165.778 56.0527L164.794 55.875ZM159.152 62.973V63.973H163.585V62.973V61.973H159.152V62.973ZM163.585 62.973L162.602 62.7865L162.407 63.8135L163.39 64L164.372 64.1866L164.567 63.1596L163.585 62.973ZM163.39 64V63H157.566V64V65H163.39V64ZM157.566 64L158.55 64.1777L158.719 63.2417L157.735 63.064L156.751 62.8863L156.582 63.8223L157.566 64ZM157.735 63.064L158.517 63.6863L164.159 56.5883L163.377 55.966L162.594 55.3438L156.952 62.4418L157.735 63.064ZM163.377 55.966V54.966H159.022V55.966V56.966H163.377V55.966ZM159.022 55.966L160.004 56.1526L160.199 55.1256L159.217 54.939L158.234 54.7525L158.039 55.7795L159.022 55.966ZM159.217 54.939V55.939H164.963V54.939V53.939H159.217V54.939ZM164.963 54.939L163.979 54.7613L163.81 55.6973L164.794 55.875L165.778 56.0527L165.947 55.1167L164.963 54.939ZM164.794 55.875L164.011 55.2528L158.369 62.3508L159.152 62.973L159.934 63.5953L165.576 56.4973L164.794 55.875ZM167.667 54.939L168.651 55.1142L168.86 53.939H167.667V54.939ZM166.055 64V65H166.893L167.039 64.1752L166.055 64ZM164.872 64L163.887 63.8249L163.678 65H164.872V64ZM166.484 54.939V53.939H165.646L165.499 54.7639L166.484 54.939ZM167.667 54.939L166.682 54.7639L165.07 63.8249L166.055 64L167.039 64.1752L168.651 55.1142L167.667 54.939ZM166.055 64V63H164.872V64V65H166.055V64ZM164.872 64L165.856 64.1752L167.468 55.1142L166.484 54.939L165.499 54.7639L163.887 63.8249L164.872 64ZM166.484 54.939V55.939H167.667V54.939V53.939H166.484V54.939ZM175.065 64V65H175.903L176.05 64.1749L175.065 64ZM173.882 64L172.981 64.4335L173.253 65H173.882V64ZM170.411 56.785L171.312 56.3515L169.97 53.5619L169.427 56.6094L170.411 56.785ZM169.124 64V65H169.961L170.109 64.1756L169.124 64ZM167.941 64L166.957 63.8251L166.748 65H167.941V64ZM169.553 54.926V53.926H168.715L168.569 54.7511L169.553 54.926ZM170.736 54.926L171.636 54.4905L171.363 53.926H170.736V54.926ZM174.22 62.128L173.32 62.5635L174.666 65.3466L175.205 62.3022L174.22 62.128ZM175.494 54.926V53.926H174.655L174.509 54.7518L175.494 54.926ZM176.677 54.926L177.662 55.1009L177.87 53.926H176.677V54.926ZM175.065 64V63H173.882V64V65H175.065V64ZM173.882 64L174.783 63.5665L171.312 56.3515L170.411 56.785L169.51 57.2185L172.981 64.4335L173.882 64ZM170.411 56.785L169.427 56.6094L168.14 63.8244L169.124 64L170.109 64.1756L171.396 56.9606L170.411 56.785ZM169.124 64V63H167.941V64V65H169.124V64ZM167.941 64L168.926 64.1749L170.538 55.1009L169.553 54.926L168.569 54.7511L166.957 63.8251L167.941 64ZM169.553 54.926V55.926H170.736V54.926V53.926H169.553V54.926ZM170.736 54.926L169.836 55.3615L173.32 62.5635L174.22 62.128L175.12 61.6925L171.636 54.4905L170.736 54.926ZM174.22 62.128L175.205 62.3022L176.479 55.1002L175.494 54.926L174.509 54.7518L173.235 61.9538L174.22 62.128ZM175.494 54.926V55.926H176.677V54.926V53.926H175.494V54.926ZM176.677 54.926L175.693 54.7511L174.081 63.8251L175.065 64L176.05 64.1749L177.662 55.1009L176.677 54.926ZM177.316 59.463L176.331 59.2892L176.329 59.2986L177.316 59.463ZM178.33 57.084L177.527 56.4871L177.526 56.4888L178.33 57.084ZM180.267 55.433L180.722 56.3234L180.73 56.3192L180.267 55.433ZM185.103 55.55L184.511 56.3564L184.516 56.3601L185.103 55.55ZM186.377 57.565V58.565H187.621L187.353 57.3502L186.377 57.565ZM184.96 57.565L184.001 57.848L184.212 58.565H184.96V57.565ZM184.076 56.343L183.506 57.1646L183.515 57.1712L183.525 57.1776L184.076 56.343ZM180.696 56.343L181.154 57.2318L181.159 57.2291L180.696 56.343ZM179.292 57.591L180.107 58.1698L180.112 58.1636L179.292 57.591ZM178.525 59.463L179.507 59.6519L179.508 59.643L178.525 59.463ZM179.214 62.271L178.507 62.9781L178.513 62.9842L179.214 62.271ZM183.569 62.219L184.19 63.0029L184.196 62.9979L183.569 62.219ZM184.947 60.048L185.911 60.3142L186.26 59.048H184.947V60.048ZM181.333 60.048L180.349 59.8703L180.136 61.048H181.333V60.048ZM181.502 59.112V58.112H180.666L180.518 58.9343L181.502 59.112ZM186.377 59.112L187.36 59.2946L187.58 58.112H186.377V59.112ZM186.208 60.022L187.174 60.2804L187.184 60.2428L187.191 60.2046L186.208 60.022ZM185.142 62.076L184.368 61.4422L184.367 61.4434L185.142 62.076ZM183.309 63.545L183.756 64.4395L183.76 64.4373L183.309 63.545ZM179.058 63.623L178.579 64.5009L178.587 64.5052L178.595 64.5094L179.058 63.623ZM177.719 62.31L176.85 62.8047L176.85 62.8047L177.719 62.31ZM177.316 59.463L178.3 59.6368C178.43 58.9011 178.708 58.2532 179.133 57.6792L178.33 57.084L177.526 56.4888C176.911 57.3188 176.513 58.2569 176.331 59.2892L177.316 59.463ZM178.33 57.084L179.132 57.6809C179.572 57.0891 180.101 56.6411 180.722 56.3234L180.267 55.433L179.811 54.5427C178.907 55.005 178.144 55.6576 177.527 56.4872L178.33 57.084ZM180.267 55.433L180.73 56.3192C181.353 55.9935 181.996 55.835 182.672 55.835V54.835V53.835C181.666 53.835 180.706 54.0752 179.803 54.5468L180.267 55.433ZM182.672 54.835V55.835C183.474 55.835 184.066 56.0295 184.511 56.3564L185.103 55.55L185.694 54.7436C184.84 54.1172 183.811 53.835 182.672 53.835V54.835ZM185.103 55.55L184.516 56.3601C184.958 56.6794 185.257 57.1291 185.4 57.7799L186.377 57.565L187.353 57.3502C187.115 56.2676 186.565 55.374 185.689 54.7399L185.103 55.55ZM186.377 57.565V56.565H184.96V57.565V58.565H186.377V57.565ZM184.96 57.565L185.919 57.282C185.701 56.5422 185.27 55.9328 184.627 55.5084L184.076 56.343L183.525 57.1776C183.749 57.3253 183.907 57.5305 184.001 57.848L184.96 57.565ZM184.076 56.343L184.646 55.5214C184.019 55.0868 183.28 54.901 182.49 54.901V55.901V56.901C182.965 56.901 183.283 57.0099 183.506 57.1646L184.076 56.343ZM182.49 55.901V54.901C181.695 54.901 180.938 55.0878 180.232 55.4569L180.696 56.343L181.159 57.2291C181.58 57.0089 182.019 56.901 182.49 56.901V55.901ZM180.696 56.343L180.237 55.4542C179.529 55.8197 178.94 56.3484 178.472 57.0184L179.292 57.591L180.112 58.1636C180.406 57.7416 180.753 57.4384 181.154 57.2318L180.696 56.343ZM179.292 57.591L178.476 57.0123C178.002 57.6798 177.695 58.4428 177.541 59.2831L178.525 59.463L179.508 59.643C179.615 59.0619 179.818 58.5769 180.107 58.1698L179.292 57.591ZM178.525 59.463L177.543 59.2742C177.485 59.5764 177.46 59.9018 177.46 60.243H178.46H179.46C179.46 59.9949 179.478 59.8003 179.507 59.6519L178.525 59.463ZM178.46 60.243H177.46C177.46 61.3022 177.781 62.2521 178.507 62.9781L179.214 62.271L179.921 61.5639C179.642 61.2846 179.46 60.8825 179.46 60.243H178.46ZM179.214 62.271L178.513 62.9842C179.238 63.6967 180.18 64.012 181.229 64.012V63.012V62.012C180.596 62.012 180.195 61.8333 179.915 61.5578L179.214 62.271ZM181.229 63.012V64.012C182.335 64.012 183.337 63.6787 184.19 63.0029L183.569 62.219L182.948 61.4352C182.466 61.8167 181.908 62.012 181.229 62.012V63.012ZM183.569 62.219L184.196 62.9979C185.043 62.3158 185.609 61.4046 185.911 60.3142L184.947 60.048L183.983 59.7818C183.781 60.5114 183.429 61.0476 182.942 61.4401L183.569 62.219ZM184.947 60.048V59.048H181.333V60.048V61.048H184.947V60.048ZM181.333 60.048L182.317 60.2257L182.486 59.2897L181.502 59.112L180.518 58.9343L180.349 59.8703L181.333 60.048ZM181.502 59.112V60.112H186.377V59.112V58.112H181.502V59.112ZM186.377 59.112L185.394 58.9294L185.225 59.8394L186.208 60.022L187.191 60.2046L187.36 59.2946L186.377 59.112ZM186.208 60.022L185.242 59.7637C185.081 60.3653 184.794 60.9231 184.368 61.4422L185.142 62.076L185.915 62.7098C186.512 61.9809 186.936 61.1694 187.174 60.2804L186.208 60.022ZM185.142 62.076L184.367 61.4434C183.954 61.9489 183.454 62.3508 182.857 62.6527L183.309 63.545L183.76 64.4373C184.602 64.0112 185.324 63.4337 185.916 62.7087L185.142 62.076ZM183.309 63.545L182.861 62.6506C182.29 62.9362 181.689 63.078 181.047 63.078V64.078V65.078C181.999 65.078 182.906 64.8645 183.756 64.4394L183.309 63.545ZM181.047 64.078V63.078C180.44 63.078 179.94 62.9556 179.521 62.7367L179.058 63.623L178.595 64.5094C179.337 64.8971 180.163 65.078 181.047 65.078V64.078ZM179.058 63.623L179.537 62.7451C179.127 62.5216 178.816 62.2163 178.588 61.8153L177.719 62.31L176.85 62.8047C177.263 63.5304 177.845 64.1004 178.579 64.5009L179.058 63.623ZM177.719 62.31L178.588 61.8153C178.363 61.4206 178.238 60.9493 178.238 60.373H177.238H176.238C176.238 61.2527 176.433 62.0728 176.85 62.8047L177.719 62.31ZM177.238 60.373H178.238C178.238 60.1373 178.259 59.889 178.302 59.6274L177.316 59.463L176.329 59.2986C176.269 59.661 176.238 60.0194 176.238 60.373H177.238ZM195.52 54.939L196.505 55.1128L196.712 53.939H195.52V54.939ZM193.921 64V65H194.76L194.906 64.1738L193.921 64ZM192.738 64L191.753 63.8266L191.546 65H192.738V64ZM193.466 59.866L194.451 60.0394L194.657 58.866H193.466V59.866ZM188.864 59.866V58.866H188.027L187.88 59.6896L188.864 59.866ZM188.123 64V65H188.96L189.107 64.1764L188.123 64ZM186.94 64L185.955 63.8249L185.746 65H186.94V64ZM188.552 54.939V53.939H187.714L187.567 54.7639L188.552 54.939ZM189.735 54.939L190.719 55.1148L190.929 53.939H189.735V54.939ZM189.02 58.943L188.035 58.7672L187.825 59.943H189.02V58.943ZM193.635 58.943V59.943H194.475L194.62 59.1157L193.635 58.943ZM194.337 54.939V53.939H193.497L193.352 54.7663L194.337 54.939ZM195.52 54.939L194.535 54.7652L192.936 63.8262L193.921 64L194.906 64.1738L196.505 55.1128L195.52 54.939ZM193.921 64V63H192.738V64V65H193.921V64ZM192.738 64L193.723 64.1734L194.451 60.0394L193.466 59.866L192.481 59.6926L191.753 63.8266L192.738 64ZM193.466 59.866V58.866H188.864V59.866V60.866H193.466V59.866ZM188.864 59.866L187.88 59.6896L187.139 63.8236L188.123 64L189.107 64.1764L189.848 60.0424L188.864 59.866ZM188.123 64V63H186.94V64V65H188.123V64ZM186.94 64L187.924 64.1752L189.536 55.1142L188.552 54.939L187.567 54.7639L185.955 63.8249L186.94 64ZM188.552 54.939V55.939H189.735V54.939V53.939H188.552V54.939ZM189.735 54.939L188.75 54.7632L188.035 58.7672L189.02 58.943L190.004 59.1188L190.719 55.1148L189.735 54.939ZM189.02 58.943V59.943H193.635V58.943V57.943H189.02V58.943ZM193.635 58.943L194.62 59.1157L195.322 55.1117L194.337 54.939L193.352 54.7663L192.65 58.7703L193.635 58.943ZM194.337 54.939V55.939H195.52V54.939V53.939H194.337V54.939ZM202.363 55.524L201.716 56.2863L201.716 56.2863L202.363 55.524ZM203 57.604L203.984 57.7817L203.988 57.7636L203.99 57.7454L203 57.604ZM202.168 59.255L201.435 58.5751L202.168 59.255ZM200.387 60.204L200.182 59.2252L198.994 59.4738L199.466 60.5922L200.387 60.204ZM201.986 64V65H203.492L202.908 63.6118L201.986 64ZM200.569 64L199.643 64.377L199.897 65H200.569V64ZM199.061 60.295L199.987 59.918L199.734 59.295H199.061V60.295ZM197.644 60.295V59.295H196.807L196.66 60.1189L197.644 60.295ZM196.981 64V65H197.818L197.966 64.1762L196.981 64ZM195.798 64L194.814 63.8249L194.605 65H195.798V64ZM197.41 54.939V53.939H196.572L196.426 54.7639L197.41 54.939ZM201.778 57.604L202.762 57.7815L202.765 57.7684L201.778 57.604ZM201.401 56.213L200.759 56.9792L200.765 56.9842L200.771 56.9891L201.401 56.213ZM198.424 55.875V54.875H197.585L197.439 55.7017L198.424 55.875ZM197.813 59.346L196.828 59.1727L196.622 60.346H197.813V59.346ZM201.076 58.878L201.718 59.6448L201.728 59.636L201.076 58.878ZM200.322 54.939V55.939C201.1 55.939 201.508 56.11 201.716 56.2863L202.363 55.524L203.01 54.7617C202.299 54.158 201.347 53.939 200.322 53.939V54.939ZM202.363 55.524L201.716 56.2863C201.932 56.47 202.052 56.7013 202.052 57.084H203.052H204.052C204.052 56.1667 203.713 55.3581 203.01 54.7617L202.363 55.524ZM203.052 57.084H202.052C202.052 57.0836 202.052 57.0923 202.051 57.1126C202.05 57.1323 202.048 57.1586 202.044 57.1925C202.037 57.2608 202.026 57.3501 202.01 57.4626L203 57.604L203.99 57.7454C204.025 57.5016 204.052 57.266 204.052 57.084H203.052ZM203 57.604L202.016 57.4263C201.938 57.8575 201.75 58.2347 201.435 58.5751L202.168 59.255L202.901 59.935C203.47 59.322 203.837 58.5986 203.984 57.7817L203 57.604ZM202.168 59.255L201.435 58.5751C201.157 58.875 200.761 59.1042 200.182 59.2252L200.387 60.204L200.592 61.1828C201.504 60.9918 202.296 60.5884 202.901 59.935L202.168 59.255ZM200.387 60.204L199.466 60.5922L201.065 64.3882L201.986 64L202.908 63.6118L201.309 59.8158L200.387 60.204ZM201.986 64V63H200.569V64V65H201.986V64ZM200.569 64L201.495 63.623L199.987 59.918L199.061 60.295L198.135 60.672L199.643 64.377L200.569 64ZM199.061 60.295V59.295H197.644V60.295V61.295H199.061V60.295ZM197.644 60.295L196.66 60.1189L195.997 63.8239L196.981 64L197.966 64.1762L198.629 60.4712L197.644 60.295ZM196.981 64V63H195.798V64V65H196.981V64ZM195.798 64L196.783 64.1752L198.395 55.1142L197.41 54.939L196.426 54.7639L194.814 63.8249L195.798 64ZM197.41 54.939V55.939H200.322V54.939V53.939H197.41V54.939ZM201.778 57.604L202.765 57.7684C202.798 57.5693 202.817 57.3704 202.817 57.175H201.817H200.817C200.817 57.2396 200.811 57.3268 200.792 57.4396L201.778 57.604ZM201.817 57.175H202.817C202.817 56.5132 202.583 55.8844 202.032 55.4369L201.401 56.213L200.771 56.9891C200.787 57.0027 200.791 57.0102 200.795 57.0194C200.801 57.0329 200.817 57.0779 200.817 57.175H201.817ZM201.401 56.213L202.044 55.4468C201.514 55.0025 200.818 54.875 200.153 54.875V55.875V56.875C200.615 56.875 200.751 56.9729 200.759 56.9792L201.401 56.213ZM200.153 55.875V54.875H198.424V55.875V56.875H200.153V55.875ZM198.424 55.875L197.439 55.7017L196.828 59.1727L197.813 59.346L198.798 59.5194L199.409 56.0484L198.424 55.875ZM197.813 59.346V60.346H199.555V59.346V58.346H197.813V59.346ZM199.555 59.346V60.346C200.355 60.346 201.115 60.1498 201.718 59.6448L201.076 58.878L200.434 58.1113C200.292 58.2302 200.038 58.346 199.555 58.346V59.346ZM201.076 58.878L201.728 59.636C202.292 59.1515 202.63 58.5137 202.762 57.7815L201.778 57.604L200.794 57.4265C200.735 57.7517 200.606 57.9632 200.424 58.12L201.076 58.878Z" fill="#72B8B2" mask="url(#path-38-outside-1_1_132)"/>
</g>
<defs>
<filter id="filter0_dd_1_132" x="152.369" y="50.5619" width="55.6832" height="19.7847" filterUnits="userSpaceOnUse" color-interpolation-filters="sRGB">
<feFlood flood-opacity="0" result="BackgroundImageFix"/>
<feColorMatrix in="SourceAlpha" type="matrix" values="0 0 0 0 0 0 0 0 0 0 0 0 0 0 0 0 0 0 127 0" result="hardAlpha"/>
<feMorphology radius="1" operator="dilate" in="SourceAlpha" result="effect1_dropShadow_1_132"/>
<feOffset dy="1"/>
<feGaussianBlur stdDeviation="1.5"/>
<feColorMatrix type="matrix" values="0 0 0 0 0 0 0 0 0 0 0 0 0 0 0 0 0 0 0.15 0"/>
<feBlend mode="normal" in2="BackgroundImageFix" result="effect1_dropShadow_1_132"/>
<feColorMatrix in="SourceAlpha" type="matrix" values="0 0 0 0 0 0 0 0 0 0 0 0 0 0 0 0 0 0 127 0" result="hardAlpha"/>
<feOffset dy="1"/>
<feGaussianBlur stdDeviation="1"/>
<feColorMatrix type="matrix" values="0 0 0 0 0 0 0 0 0 0 0 0 0 0 0 0 0 0 0.3 0"/>
<feBlend mode="normal" in2="effect1_dropShadow_1_132" result="effect2_dropShadow_1_132"/>
<feBlend mode="normal" in="SourceGraphic" in2="effect2_dropShadow_1_132" result="shape"/>
</filter>
<linearGradient id="paint0_linear_1_132" x1="318.402" y1="202.39" x2="17.6224" y2="117.035" gradientUnits="userSpaceOnUse">
<stop stop-color="#FF354D"/>
<stop offset="1" stop-color="#0877FE"/>
</linearGradient>
</defs>
</svg>
