<svg width="800" height="449" viewBox="0 0 800 449" fill="none" xmlns="http://www.w3.org/2000/svg">
<g clip-path="url(#clip0_1_2)">
<rect width="800" height="449" fill="white"/>
<rect width="800" height="600" fill="url(#paint0_linear_1_2)"/>
<path d="M296.457 323.144H116.731L116.812 308.608C117.017 271.827 155.503 241.52 203.713 240.895C204.233 240.888 204.755 240.885 205.278 240.885H205.278C216.126 240.878 226.888 242.353 237.055 245.239C271.167 254.93 294.064 279.552 295.587 307.295L296.457 323.144Z" fill="url(#paint1_linear_1_2)"/>
<path d="M368 323.144H40V323.709H368V323.144Z" fill="#2F2E41"/>
<path d="M203.55 258.13L211.469 262.524L219.389 314.147H238.107L231.628 255.384L205.71 247.695L203.55 258.13Z" fill="#2F2E41"/>
<path d="M170.433 241.655C170.433 241.655 168.274 260.327 176.913 260.876C185.552 261.425 218.669 255.384 218.669 255.384L234.508 298.221L258.265 288.884C258.265 288.884 243.867 240.556 235.227 237.81C226.588 235.064 197.791 229.572 197.791 229.572L176.913 232.318L170.433 241.655Z" fill="#2F2E41"/>
<path d="M222.269 313.049C222.269 313.049 217.949 325.68 220.829 326.778C222.561 327.438 224.243 328.172 225.868 328.975V326.778C225.868 326.778 229.468 329.524 229.468 331.721C229.468 333.918 248.906 334.467 248.906 331.721C248.906 328.975 248.186 325.68 244.587 324.032C240.987 322.385 236.667 313.049 236.667 313.049H222.269Z" fill="#2F2E41"/>
<path d="M243.147 290.532L244.586 300.967L249.626 307.557L261.865 297.122L252.506 285.589L243.147 290.532Z" fill="#F0EFFF"/>
<path d="M254.666 300.966C254.666 300.966 257.317 294.052 259.951 294.763C262.585 295.475 272.664 302.614 272.664 302.614L279.863 305.909C279.863 305.909 294.262 307.008 289.942 310.303C285.623 313.598 269.784 317.991 262.585 315.794C255.386 313.598 253.946 313.049 253.946 313.049L251.786 314.147L243.147 312.499L244.587 300.966C244.587 300.966 246.746 305.909 254.666 300.966Z" fill="#2F2E41"/>
<path d="M194.911 173.006C204.056 173.006 211.47 167.351 211.47 160.375C211.47 153.399 204.056 147.744 194.911 147.744C185.766 147.744 178.353 153.399 178.353 160.375C178.353 167.351 185.766 173.006 194.911 173.006Z" fill="#F7E2AB"/>
<path d="M184.472 167.789C184.472 167.789 185.912 179.322 181.592 179.322C177.273 179.322 182.312 193.601 193.831 193.601C205.35 193.601 209.67 176.576 209.67 176.576C209.67 176.576 201.75 174.379 203.19 167.24C204.63 160.101 184.472 167.789 184.472 167.789Z" fill="#F7E2AB"/>
<path d="M183.325 178.442L177.273 180.42L160.847 185.721C160.185 185.935 159.631 186.306 159.268 186.78C158.905 187.253 158.752 187.804 158.833 188.349L165.034 230.396C165.034 230.396 158.554 240.831 168.633 241.38L170.073 245.224L181.592 234.79L224.788 233.691L225.508 180.42L205.744 174.463C205.744 174.463 203.056 185.8 183.325 178.442Z" fill="#3F3D56"/>
<path d="M163.234 187.285L160.573 186.705C160.275 186.64 159.962 186.624 159.655 186.658C159.348 186.693 159.054 186.776 158.792 186.903C158.531 187.03 158.307 187.198 158.137 187.396C157.967 187.594 157.854 187.817 157.805 188.051L150.745 221.833C150.194 224.335 150.721 226.905 152.247 229.159C154.429 232.31 158.959 235.167 168.273 231.769L174.753 196.072L163.234 187.285Z" fill="#3F3D56"/>
<path d="M217.229 179.597L225.868 180.695L249.626 205.958L251.786 210.351L265.465 207.056C265.465 207.056 264.745 211.999 271.944 211.449C271.944 211.449 263.305 229.572 245.306 224.081C227.308 218.589 221.549 202.113 221.549 202.113L217.229 179.597Z" fill="#3F3D56"/>
<path d="M227.308 190.581L194.911 180.695L193.471 183.99L208.59 193.875L227.308 190.581Z" fill="#CCCCCC"/>
<path d="M184.942 161.18C185.553 161.056 185.643 160.437 185.663 159.954C185.773 157.37 187.813 154.718 191.056 153.965C192.301 153.705 193.604 153.65 194.878 153.805C196.697 153.99 198.453 154.437 200.054 155.122C200.898 155.484 201.727 155.921 202.685 156.031C203.317 156.104 206.057 156.712 206.687 156.797C208.072 156.985 209.36 157.931 210.689 157.579C211.961 157.242 212.242 155.986 212.273 154.96C212.343 152.621 210.016 149.384 207.966 147.645C206.41 146.324 204.068 145.715 201.778 145.398C199.103 145.07 196.393 144.944 193.685 145.022C190.021 145.072 186.255 145.288 182.951 146.498C179.647 147.707 176.871 150.114 176.713 152.907C176.68 153.489 176.758 154.073 176.694 154.654C176.538 156.069 175.552 157.348 175.09 158.724C174.76 159.734 174.71 160.786 174.945 161.811C175.18 162.836 175.694 163.812 176.454 164.677C177.68 166.054 182.584 167.303 182.513 168.967C183.399 168.266 181.309 167.561 182.195 166.861C182.593 166.629 182.874 166.301 182.992 165.931C183.11 165.56 183.058 165.17 182.845 164.826L181.904 162.025C181.731 161.512 181.562 160.957 181.822 160.467C182.831 158.565 183.922 161.388 184.942 161.18Z" fill="#2F2E41"/>
<path d="M193.471 183.99L179.793 224.63L233.068 238.909L264.025 219.138L283.463 174.654L251.786 192.228L193.471 183.99Z" fill="#F2F2F2"/>
<path d="M196.083 188.393L195.899 188.924L247.734 199.358L247.918 198.827L196.083 188.393Z" fill="#E4E4E4"/>
<path d="M194.643 191.139L194.459 191.67L246.295 202.104L246.478 201.573L194.643 191.139Z" fill="#E4E4E4"/>
<path d="M193.923 193.885L193.739 194.416L245.575 204.85L245.758 204.319L193.923 193.885Z" fill="#E4E4E4"/>
<path d="M193.203 196.631L193.019 197.161L244.855 207.596L245.038 207.065L193.203 196.631Z" fill="#E4E4E4"/>
<path d="M192.483 199.376L192.299 199.907L244.135 210.342L244.318 209.811L192.483 199.376Z" fill="#E4E4E4"/>
<path d="M191.763 202.122L191.58 202.653L243.415 213.088L243.598 212.557L191.763 202.122Z" fill="#E4E4E4"/>
<path d="M191.043 204.868L190.86 205.399L242.695 215.834L242.879 215.303L191.043 204.868Z" fill="#E4E4E4"/>
<path d="M190.323 207.614L190.14 208.145L241.975 218.58L242.159 218.049L190.323 207.614Z" fill="#E4E4E4"/>
<path d="M189.603 210.36L189.42 210.891L241.255 221.326L241.439 220.795L189.603 210.36Z" fill="#E4E4E4"/>
<path d="M171.52 213.884C171.52 213.884 187.712 206.507 194.911 211.449C202.11 216.392 174.033 223.531 174.033 223.531L171.52 213.884Z" fill="#F7E2AB"/>
<path d="M153.875 217.49L174.753 211.449C174.753 211.449 171.153 221.884 178.353 222.433L168.273 231.769C168.273 231.769 148.115 231.769 153.875 217.49Z" fill="#3F3D56"/>
<path d="M257.905 194.15L278.784 182.068L273.024 196.896L251.426 208.978L257.905 194.15Z" fill="#CCCCCC"/>
<path d="M268.487 202.169L247.608 214.251L248.044 214.689L268.922 202.607L268.487 202.169Z" fill="#E4E4E4"/>
<path d="M267.047 208.21L246.169 220.292L246.604 220.73L267.482 208.648L267.047 208.21Z" fill="#E4E4E4"/>
<path d="M269.784 211.999C269.784 211.999 287.783 203.761 276.264 200.466C264.745 197.171 264.745 209.802 264.745 209.802C264.745 209.802 264.025 212.548 269.784 211.999Z" fill="#F7E2AB"/>
<path opacity="0.1" d="M164.314 193.601L163.594 215.019L174.753 212.59L165.754 212.822L164.314 193.601Z" fill="black"/>
<path d="M85.755 313.458C88.0055 319.804 95.714 323.734 95.714 323.734C95.714 323.734 99.7737 317.376 97.5232 311.029C95.2727 304.683 87.5642 300.753 87.5642 300.753C87.5642 300.753 83.5044 307.112 85.755 313.458Z" fill="#8985A8"/>
<path d="M89.0619 312.094C95.2374 316.68 95.9916 323.729 95.9916 323.729C95.9916 323.729 86.7335 323.344 80.5581 318.758C74.3826 314.172 73.6283 307.123 73.6283 307.123C73.6283 307.123 82.8864 307.508 89.0619 312.094Z" fill="#3F3D56"/>
<path d="M299.051 252.192H287.934V260.672H299.051V252.192Z" fill="#F2F2F2"/>
<path d="M254.582 156.081H243.465V164.561H254.582V156.081Z" fill="#F2F2F2"/>
<path d="M114.878 242.015C117.948 242.015 120.437 240.117 120.437 237.775C120.437 235.433 117.948 233.535 114.878 233.535C111.808 233.535 109.32 235.433 109.32 237.775C109.32 240.117 111.808 242.015 114.878 242.015Z" fill="#F2F2F2"/>
<g filter="url(#filter0_dd_1_2)">
<path d="M199.152 207.643H203.585L203.39 208.67H197.566L197.735 207.734L203.377 200.636H199.022L199.217 199.609H204.963L204.794 200.545L199.152 207.643ZM207.667 199.609L206.055 208.67H204.872L206.484 199.609H207.667ZM215.065 208.67H213.882L210.411 201.455L209.124 208.67H207.941L209.553 199.596H210.736L214.22 206.798L215.494 199.596H216.677L215.065 208.67ZM217.316 204.133C217.472 203.249 217.81 202.456 218.33 201.754C218.858 201.043 219.504 200.493 220.267 200.103C221.029 199.704 221.831 199.505 222.672 199.505C223.642 199.505 224.453 199.743 225.103 200.22C225.761 200.697 226.186 201.368 226.377 202.235H224.96C224.804 201.706 224.509 201.299 224.076 201.013C223.651 200.718 223.122 200.571 222.49 200.571C221.857 200.571 221.259 200.718 220.696 201.013C220.141 201.299 219.673 201.715 219.292 202.261C218.91 202.798 218.655 203.422 218.525 204.133C218.481 204.358 218.46 204.618 218.46 204.913C218.46 205.762 218.711 206.438 219.214 206.941C219.716 207.435 220.388 207.682 221.229 207.682C222.121 207.682 222.901 207.418 223.569 206.889C224.236 206.352 224.695 205.628 224.947 204.718H221.333L221.502 203.782H226.377L226.208 204.692C226.008 205.437 225.653 206.122 225.142 206.746C224.639 207.361 224.028 207.851 223.309 208.215C222.598 208.57 221.844 208.748 221.047 208.748C220.301 208.748 219.638 208.596 219.058 208.293C218.486 207.981 218.039 207.543 217.719 206.98C217.398 206.417 217.238 205.771 217.238 205.043C217.238 204.748 217.264 204.445 217.316 204.133ZM235.52 199.609L233.921 208.67H232.738L233.466 204.536H228.864L228.123 208.67H226.94L228.552 199.609H229.735L229.02 203.613H233.635L234.337 199.609H235.52ZM240.322 199.609C241.223 199.609 241.904 199.804 242.363 200.194C242.822 200.584 243.052 201.104 243.052 201.754C243.052 201.858 243.035 202.031 243 202.274C242.887 202.898 242.61 203.448 242.168 203.925C241.726 204.402 241.132 204.718 240.387 204.874L241.986 208.67H240.569L239.061 204.965H237.644L236.981 208.67H235.798L237.41 199.609H240.322ZM241.778 202.274C241.804 202.118 241.817 201.975 241.817 201.845C241.817 201.429 241.678 201.108 241.401 200.883C241.132 200.658 240.716 200.545 240.153 200.545H238.424L237.813 204.016H239.555C240.196 204.016 240.703 203.86 241.076 203.548C241.449 203.227 241.683 202.803 241.778 202.274Z" fill="black"/>
</g>
<g opacity="0.8">
<circle cx="187.162" cy="375.673" r="2.68095" transform="rotate(90 187.162 375.673)" fill="white"/>
<circle cx="187.162" cy="389.748" r="2.68095" transform="rotate(90 187.162 389.748)" fill="white"/>
<circle cx="187.162" cy="403.823" r="2.68095" transform="rotate(90 187.162 403.823)" fill="white"/>
<circle cx="187.162" cy="417.898" r="2.68095" transform="rotate(90 187.162 417.898)" fill="white"/>
<circle cx="187.162" cy="431.973" r="2.68095" transform="rotate(90 187.162 431.973)" fill="white"/>
<circle cx="187.162" cy="446.048" r="2.68095" transform="rotate(90 187.162 446.048)" fill="white"/>
<circle cx="172.417" cy="375.673" r="2.68095" transform="rotate(90 172.417 375.673)" fill="white"/>
<circle cx="172.417" cy="389.748" r="2.68095" transform="rotate(90 172.417 389.748)" fill="white"/>
<circle cx="172.417" cy="403.823" r="2.68095" transform="rotate(90 172.417 403.823)" fill="white"/>
<circle cx="172.417" cy="417.898" r="2.68095" transform="rotate(90 172.417 417.898)" fill="white"/>
<circle cx="172.417" cy="431.973" r="2.68095" transform="rotate(90 172.417 431.973)" fill="white"/>
<circle cx="172.417" cy="446.048" r="2.68095" transform="rotate(90 172.417 446.048)" fill="white"/>
<circle cx="157.671" cy="375.673" r="2.68095" transform="rotate(90 157.671 375.673)" fill="white"/>
<circle cx="157.671" cy="389.748" r="2.68095" transform="rotate(90 157.671 389.748)" fill="white"/>
<circle cx="157.671" cy="403.823" r="2.68095" transform="rotate(90 157.671 403.823)" fill="white"/>
<circle cx="157.671" cy="417.898" r="2.68095" transform="rotate(90 157.671 417.898)" fill="white"/>
<circle cx="157.671" cy="431.973" r="2.68095" transform="rotate(90 157.671 431.973)" fill="white"/>
<circle cx="157.671" cy="446.048" r="2.68095" transform="rotate(90 157.671 446.048)" fill="white"/>
<circle cx="142.926" cy="375.673" r="2.68095" transform="rotate(90 142.926 375.673)" fill="white"/>
<circle cx="142.926" cy="389.748" r="2.68095" transform="rotate(90 142.926 389.748)" fill="white"/>
<circle cx="142.926" cy="403.823" r="2.68095" transform="rotate(90 142.926 403.823)" fill="white"/>
<circle cx="142.926" cy="417.898" r="2.68095" transform="rotate(90 142.926 417.898)" fill="white"/>
<circle cx="142.926" cy="431.973" r="2.68095" transform="rotate(90 142.926 431.973)" fill="white"/>
<circle cx="142.926" cy="446.048" r="2.68095" transform="rotate(90 142.926 446.048)" fill="white"/>
<circle cx="128.181" cy="375.673" r="2.68095" transform="rotate(90 128.181 375.673)" fill="white"/>
<circle cx="128.181" cy="389.748" r="2.68095" transform="rotate(90 128.181 389.748)" fill="white"/>
<circle cx="128.181" cy="403.823" r="2.68095" transform="rotate(90 128.181 403.823)" fill="white"/>
<circle cx="128.181" cy="417.898" r="2.68095" transform="rotate(90 128.181 417.898)" fill="white"/>
<circle cx="128.181" cy="431.973" r="2.68095" transform="rotate(90 128.181 431.973)" fill="white"/>
<circle cx="128.181" cy="446.048" r="2.68095" transform="rotate(90 128.181 446.048)" fill="white"/>
</g>
</g>
<defs>
<filter id="filter0_dd_1_2" x="193.566" y="196.505" width="53.4865" height="17.243" filterUnits="userSpaceOnUse" color-interpolation-filters="sRGB">
<feFlood flood-opacity="0" result="BackgroundImageFix"/>
<feColorMatrix in="SourceAlpha" type="matrix" values="0 0 0 0 0 0 0 0 0 0 0 0 0 0 0 0 0 0 127 0" result="hardAlpha"/>
<feMorphology radius="1" operator="dilate" in="SourceAlpha" result="effect1_dropShadow_1_2"/>
<feOffset dy="1"/>
<feGaussianBlur stdDeviation="1.5"/>
<feColorMatrix type="matrix" values="0 0 0 0 0 0 0 0 0 0 0 0 0 0 0 0 0 0 0.15 0"/>
<feBlend mode="normal" in2="BackgroundImageFix" result="effect1_dropShadow_1_2"/>
<feColorMatrix in="SourceAlpha" type="matrix" values="0 0 0 0 0 0 0 0 0 0 0 0 0 0 0 0 0 0 127 0" result="hardAlpha"/>
<feOffset dy="1"/>
<feGaussianBlur stdDeviation="1"/>
<feColorMatrix type="matrix" values="0 0 0 0 0 0 0 0 0 0 0 0 0 0 0 0 0 0 0.3 0"/>
<feBlend mode="normal" in2="effect1_dropShadow_1_2" result="effect2_dropShadow_1_2"/>
<feBlend mode="normal" in="SourceGraphic" in2="effect2_dropShadow_1_2" result="shape"/>
</filter>
<linearGradient id="paint0_linear_1_2" x1="-10.0941" y1="-71.3872" x2="762.709" y2="600" gradientUnits="userSpaceOnUse">
<stop stop-color="#F3F6F9"/>
<stop offset="1" stop-color="#DEE5F0"/>
</linearGradient>
<linearGradient id="paint1_linear_1_2" x1="358.402" y1="347.06" x2="57.6224" y2="261.705" gradientUnits="userSpaceOnUse">
<stop stop-color="#FF354D"/>
<stop offset="1" stop-color="#0877FE"/>
</linearGradient>
<clipPath id="clip0_1_2">
<rect width="800" height="449" fill="white"/>
</clipPath>
</defs>
</svg>
