<svg width="336" height="197" viewBox="0 0 336 197" fill="none" xmlns="http://www.w3.org/2000/svg">
<g filter="url(#filter0_dd_51_3)">
<path d="M260.457 181.144H80.7312L80.8123 166.608C81.0174 129.827 119.503 99.5202 167.713 98.8947C168.233 98.8879 168.755 98.8846 169.278 98.8846C180.126 98.8783 190.888 100.353 201.055 103.239C235.167 112.93 258.064 137.552 259.587 165.295L260.457 181.144Z" fill="url(#paint0_linear_51_3)"/>
<path d="M332 181.144H4V181.709H332V181.144Z" fill="#2F2E41"/>
<path d="M167.55 116.13L175.469 120.524L183.389 172.147H202.107L195.628 113.384L169.71 105.695L167.55 116.13Z" fill="#2F2E41"/>
<path d="M134.433 99.6545C134.433 99.6545 132.274 118.327 140.913 118.876C149.552 119.425 182.669 113.384 182.669 113.384L198.508 156.221L222.265 146.884C222.265 146.884 207.867 98.5562 199.227 95.8103C190.588 93.0643 161.791 87.5725 161.791 87.5725L140.913 90.3184L134.433 99.6545Z" fill="#2F2E41"/>
<path d="M186.269 171.049C186.269 171.049 181.949 183.68 184.829 184.778C186.561 185.438 188.243 186.172 189.868 186.975V184.778C189.868 184.778 193.468 187.524 193.468 189.721C193.468 191.918 212.906 192.467 212.906 189.721C212.906 186.975 212.186 183.68 208.587 182.032C204.987 180.385 200.667 171.049 200.667 171.049H186.269Z" fill="#2F2E41"/>
<path d="M207.147 148.532L208.586 158.967L213.626 165.557L225.865 155.122L216.506 143.589L207.147 148.532Z" fill="#F0EFFF"/>
<path d="M218.666 158.966C218.666 158.966 221.317 152.052 223.951 152.763C226.585 153.475 236.664 160.614 236.664 160.614L243.863 163.909C243.863 163.909 258.262 165.008 253.942 168.303C249.623 171.598 233.784 175.991 226.585 173.794C219.386 171.598 217.946 171.049 217.946 171.049L215.786 172.147L207.147 170.499L208.586 158.967C208.586 158.967 210.746 163.909 218.666 158.966Z" fill="#2F2E41"/>
<path d="M158.911 31.0065C168.056 31.0065 175.47 25.3513 175.47 18.3752C175.47 11.3992 168.056 5.74399 158.911 5.74399C149.766 5.74399 142.353 11.3992 142.353 18.3752C142.353 25.3513 149.766 31.0065 158.911 31.0065Z" fill="#F7E2AB"/>
<path d="M148.472 25.7892C148.472 25.7892 149.912 37.3221 145.592 37.3221C141.273 37.3221 146.312 51.6009 157.831 51.6009C169.35 51.6009 173.67 34.5762 173.67 34.5762C173.67 34.5762 165.75 32.3794 167.19 25.24C168.63 18.1006 148.472 25.7892 148.472 25.7892Z" fill="#F7E2AB"/>
<path d="M147.325 36.4423L141.273 38.4205L124.847 43.7215C124.185 43.9352 123.631 44.3065 123.268 44.78C122.905 45.2534 122.752 45.8037 122.833 46.3488L129.034 88.3963C129.034 88.3963 122.554 98.8308 132.633 99.38L134.073 103.224L145.592 92.7897L188.788 91.6914L189.508 38.4205L169.744 32.4627C169.744 32.4627 167.056 43.8004 147.325 36.4423Z" fill="#3F3D56"/>
<path d="M127.234 45.2853L124.573 44.7054C124.275 44.6404 123.962 44.6244 123.655 44.6585C123.348 44.6925 123.054 44.7759 122.792 44.9031C122.531 45.0302 122.307 45.1983 122.137 45.3961C121.967 45.594 121.854 45.8171 121.805 46.0508L114.745 79.833C114.194 82.3347 114.721 84.9052 116.247 87.1591C118.429 90.3098 122.959 93.1673 132.273 89.7692L138.753 54.0722L127.234 45.2853Z" fill="#3F3D56"/>
<path d="M181.229 37.5967L189.868 38.6951L213.626 63.9576L215.786 68.351L229.465 65.0559C229.465 65.0559 228.745 69.9986 235.944 69.4494C235.944 69.4494 227.305 87.5725 209.306 82.0806C191.308 76.5888 185.549 60.1132 185.549 60.1132L181.229 37.5967Z" fill="#3F3D56"/>
<path d="M191.308 48.5805L158.911 38.695L157.471 41.9901L172.59 51.8754L191.308 48.5805Z" fill="#CCCCCC"/>
<path d="M148.942 19.1805C149.553 19.0559 149.643 18.4365 149.663 17.9539C149.773 15.3695 151.813 12.7177 155.056 11.9653C156.301 11.705 157.604 11.6503 158.878 11.8049C160.697 11.9897 162.453 12.4367 164.054 13.122C164.898 13.4843 165.727 13.9205 166.685 14.0312C167.317 14.1043 170.057 14.7119 170.687 14.7974C172.072 14.9854 173.36 15.9308 174.689 15.579C175.961 15.2424 176.242 13.9864 176.273 12.9599C176.343 10.6212 174.016 7.38439 171.966 5.6446C170.41 4.32434 168.068 3.71489 165.778 3.39799C163.103 3.07014 160.393 2.94435 157.685 3.02245C154.021 3.0723 150.255 3.28806 146.951 4.49755C143.647 5.70704 140.871 8.11421 140.713 10.9073C140.68 11.4892 140.758 12.0734 140.694 12.6537C140.538 14.0694 139.552 15.3481 139.09 16.7244C138.76 17.7342 138.71 18.7856 138.945 19.8108C139.18 20.8361 139.694 21.8124 140.454 22.6769C141.68 24.0535 146.584 25.3033 146.513 26.9668C147.399 26.2663 145.309 25.5612 146.195 24.8607C146.593 24.6294 146.874 24.3012 146.992 23.9308C147.11 23.5605 147.058 23.1704 146.845 22.8257L145.904 20.0253C145.731 19.5125 145.562 18.9574 145.822 18.4668C146.831 16.5649 147.922 19.3881 148.942 19.1805Z" fill="#2F2E41"/>
<path d="M157.471 41.9901L143.793 82.6297L197.068 96.9087L228.025 77.1378L247.463 32.6541L215.786 50.228L157.471 41.9901Z" fill="#F2F2F2"/>
<path d="M160.083 46.3928L159.899 46.9237L211.734 57.3582L211.918 56.8273L160.083 46.3928Z" fill="#E4E4E4"/>
<path d="M158.643 49.1387L158.459 49.6696L210.295 60.1041L210.478 59.5732L158.643 49.1387Z" fill="#E4E4E4"/>
<path d="M157.923 51.8846L157.739 52.4156L209.575 62.8501L209.758 62.3191L157.923 51.8846Z" fill="#E4E4E4"/>
<path d="M157.203 54.6305L157.019 55.1615L208.855 65.596L209.038 65.0651L157.203 54.6305Z" fill="#E4E4E4"/>
<path d="M156.483 57.3765L156.299 57.9074L208.135 68.3419L208.318 67.811L156.483 57.3765Z" fill="#E4E4E4"/>
<path d="M155.763 60.1224L155.58 60.6533L207.415 71.0878L207.598 70.5569L155.763 60.1224Z" fill="#E4E4E4"/>
<path d="M155.043 62.8683L154.86 63.3993L206.695 73.8338L206.879 73.3028L155.043 62.8683Z" fill="#E4E4E4"/>
<path d="M154.323 65.6142L154.14 66.1451L205.975 76.5797L206.159 76.0488L154.323 65.6142Z" fill="#E4E4E4"/>
<path d="M153.603 68.3602L153.42 68.8911L205.255 79.3256L205.439 78.7947L153.603 68.3602Z" fill="#E4E4E4"/>
<path d="M135.52 71.8843C135.52 71.8843 151.712 64.5067 158.911 69.4494C166.11 74.3921 138.033 81.5315 138.033 81.5315L135.52 71.8843Z" fill="#F7E2AB"/>
<path d="M117.875 75.4904L138.753 69.4494C138.753 69.4494 135.153 79.8839 142.353 80.4331L132.273 89.7692C132.273 89.7692 112.115 89.7692 117.875 75.4904Z" fill="#3F3D56"/>
<path d="M221.905 52.1502L242.784 40.0679L237.024 54.8961L215.426 66.9781L221.905 52.1502Z" fill="#CCCCCC"/>
<path d="M232.487 60.1693L211.608 72.2509L212.044 72.6885L232.922 60.6069L232.487 60.1693Z" fill="#E4E4E4"/>
<path d="M231.047 66.2103L210.169 78.2919L210.604 78.7296L231.482 66.6479L231.047 66.2103Z" fill="#E4E4E4"/>
<path d="M233.784 69.9986C233.784 69.9986 251.783 61.7608 240.264 58.4657C228.745 55.1706 228.745 67.8018 228.745 67.8018C228.745 67.8018 228.025 70.5478 233.784 69.9986Z" fill="#F7E2AB"/>
<path d="M128.314 51.6009L127.594 73.0192L138.753 70.5899L129.754 70.8222L128.314 51.6009Z" fill="black"/>
<path d="M49.755 171.458C52.0055 177.804 59.714 181.734 59.714 181.734C59.714 181.734 63.7737 175.376 61.5232 169.029C59.2727 162.683 51.5642 158.753 51.5642 158.753C51.5642 158.753 47.5044 165.112 49.755 171.458Z" fill="#8985A8"/>
<path d="M53.0619 170.094C59.2374 174.68 59.9916 181.729 59.9916 181.729C59.9916 181.729 50.7335 181.344 44.5581 176.758C38.3826 172.172 37.6283 165.123 37.6283 165.123C37.6283 165.123 46.8864 165.508 53.0619 170.094Z" fill="#3F3D56"/>
<path d="M163.152 65.643H167.585L167.39 66.67H161.566L161.735 65.734L167.377 58.636H163.022L163.217 57.609H168.963L168.794 58.545L163.152 65.643Z" fill="black"/>
<path d="M171.667 57.609L170.055 66.67H168.872L170.484 57.609H171.667Z" fill="black"/>
<path d="M179.065 66.67H177.882L174.411 59.455L173.124 66.67H171.941L173.553 57.596H174.736L178.22 64.798L179.494 57.596H180.677L179.065 66.67Z" fill="black"/>
<path d="M181.316 62.133C181.472 61.249 181.81 60.456 182.33 59.754C182.858 59.0433 183.504 58.493 184.267 58.103C185.029 57.7043 185.831 57.505 186.672 57.505C187.642 57.505 188.453 57.7433 189.103 58.22C189.761 58.6967 190.186 59.3683 190.377 60.235H188.96C188.804 59.7063 188.509 59.299 188.076 59.013C187.651 58.7183 187.122 58.571 186.49 58.571C185.857 58.571 185.259 58.7183 184.696 59.013C184.141 59.299 183.673 59.715 183.292 60.261C182.91 60.7983 182.655 61.4223 182.525 62.133C182.481 62.3583 182.46 62.6183 182.46 62.913C182.46 63.7623 182.711 64.4383 183.214 64.941C183.716 65.435 184.388 65.682 185.229 65.682C186.121 65.682 186.901 65.4177 187.569 64.889C188.236 64.3517 188.695 63.628 188.947 62.718H185.333L185.502 61.782H190.377L190.208 62.692C190.008 63.4373 189.653 64.122 189.142 64.746C188.639 65.3613 188.028 65.851 187.309 66.215C186.598 66.5703 185.844 66.748 185.047 66.748C184.301 66.748 183.638 66.5963 183.058 66.293C182.486 65.981 182.039 65.5433 181.719 64.98C181.398 64.4167 181.238 63.771 181.238 63.043C181.238 62.7483 181.264 62.445 181.316 62.133Z" fill="black"/>
<path d="M199.52 57.609L197.921 66.67H196.738L197.466 62.536H192.864L192.123 66.67H190.94L192.552 57.609H193.735L193.02 61.613H197.635L198.337 57.609H199.52Z" fill="black"/>
<path d="M204.322 57.609C205.223 57.609 205.904 57.804 206.363 58.194C206.822 58.584 207.052 59.104 207.052 59.754C207.052 59.858 207.035 60.0313 207 60.274C206.887 60.898 206.61 61.4483 206.168 61.925C205.726 62.4017 205.132 62.718 204.387 62.874L205.986 66.67H204.569L203.061 62.965H201.644L200.981 66.67H199.798L201.41 57.609H204.322ZM205.778 60.274C205.804 60.118 205.817 59.975 205.817 59.845C205.817 59.429 205.678 59.1083 205.401 58.883C205.132 58.6577 204.716 58.545 204.153 58.545H202.424L201.813 62.016H203.555C204.196 62.016 204.703 61.86 205.076 61.548C205.449 61.2273 205.683 60.8027 205.778 60.274Z" fill="black"/>
</g>
<defs>
<filter id="filter0_dd_51_3" x="0" y="0" width="336" height="196.58" filterUnits="userSpaceOnUse" color-interpolation-filters="sRGB">
<feFlood flood-opacity="0" result="BackgroundImageFix"/>
<feColorMatrix in="SourceAlpha" type="matrix" values="0 0 0 0 0 0 0 0 0 0 0 0 0 0 0 0 0 0 127 0" result="hardAlpha"/>
<feMorphology radius="1" operator="dilate" in="SourceAlpha" result="effect1_dropShadow_51_3"/>
<feOffset dy="1"/>
<feGaussianBlur stdDeviation="1.5"/>
<feColorMatrix type="matrix" values="0 0 0 0 0 0 0 0 0 0 0 0 0 0 0 0 0 0 0.15 0"/>
<feBlend mode="normal" in2="BackgroundImageFix" result="effect1_dropShadow_51_3"/>
<feColorMatrix in="SourceAlpha" type="matrix" values="0 0 0 0 0 0 0 0 0 0 0 0 0 0 0 0 0 0 127 0" result="hardAlpha"/>
<feOffset dy="1"/>
<feGaussianBlur stdDeviation="1"/>
<feColorMatrix type="matrix" values="0 0 0 0 0 0 0 0 0 0 0 0 0 0 0 0 0 0 0.3 0"/>
<feBlend mode="normal" in2="effect1_dropShadow_51_3" result="effect2_dropShadow_51_3"/>
<feBlend mode="normal" in="SourceGraphic" in2="effect2_dropShadow_51_3" result="shape"/>
</filter>
<linearGradient id="paint0_linear_51_3" x1="445.051" y1="246.408" x2="-119.279" y2="118.92" gradientUnits="userSpaceOnUse">
<stop stop-color="#FF354D"/>
<stop offset="1" stop-color="#0877FE"/>
</linearGradient>
</defs>
</svg>
